<?xml version="1.0" encoding="UTF-8"?>
<svg id="Camada_2" data-name="Camada 2" xmlns="http://www.w3.org/2000/svg" viewBox="0 0 2691.41 866.82">
  <g id="Camada_3" data-name="Camada 3">
    <g>
      <path d="M1289.82,110.09l-46.42,205.2c31.98-23.15,52.56-46.07,94.86-50.29,270.48-26.98,229.99,363.9,36.67,439.34-52.87,20.63-120.6,21.64-170.35-7.61l-42.5-29.09c-1.17,14.11-.54,35-11.73,44.41l-179.91,91.12,152.9-693.08h166.49ZM1198.06,554.26c16.52,19.73,69.09,24.39,92.82,19.58,60.26-12.22,95.03-115.1,38.94-153.34-32.51-22.16-98.74-16.82-114.73,23.35-5.98,15.03-19.65,74.88-21.29,91.32-.72,7.18-.6,13.29,4.26,19.1Z"/>
      <path d="M1769.05,266.03c177.09-18.94,327.52,81.07,270,273.87-76.6,256.76-516.13,235.57-493.2-44.07,9.41-114.67,108.88-217.58,223.2-229.8ZM1784.4,409.15c-73.35,12.48-100.66,153.57-16.07,165.22,66.01,9.09,112.1-33.06,112.36-99.04.23-57.6-45.56-74.81-96.29-66.18Z"/>
      <path d="M2331.33,415.97l28.95-139.47,75.2-4.18,29.73-119.32,179.71-69.98-42.57,189.7h89.05l-32.86,139.44-88.48,3.65-3.72,4.88c-1.39,32.27-30.05,99.28-25.23,127.86,5.65,33.44,39.56,25.98,65.11,26.17v125.83c-55.38,33.77-187.27,22.83-226.26-33.15-44.71-64.19,15.45-179.78,21.05-251.42h-69.69Z"/>
      <polygon points="2354.56 110.09 2219.05 710.22 2052.56 710.22 2190.01 110.09 2354.56 110.09"/>
    </g>
    <path d="M467.75,535.9c-18.73,3.79-60.24.12-73.28-15.46-3.85-4.59-3.93-9.42-3.37-15.08,1.29-12.98,12.09-60.23,16.81-72.1,12.63-31.71,64.92-35.92,90.58-18.43,44.29,30.2,16.84,111.42-30.74,121.07Z"/>
    <path d="M693.02,0H173.82C77.82,0,0,77.82,0,173.81v519.2c0,95.99,77.82,173.81,173.82,173.81h519.2c95.99,0,173.81-77.82,173.81-173.81V173.81C866.83,77.82,789.01,0,693.02,0ZM534.1,638.93c-41.73,16.29-95.21,17.08-134.49-6.01l-33.55-22.96c-.93,11.14-.43,27.64-9.26,35.06l-142.04,71.94,120.71-547.18h131.44l-36.65,162.01c25.25-18.28,41.49-36.38,74.89-39.71,213.54-21.3,181.57,287.29,28.95,346.85Z"/>
  </g>
</svg>