<?xml version="1.0" encoding="UTF-8"?>
<svg id="Camada_2" data-name="Camada 2" xmlns="http://www.w3.org/2000/svg" viewBox="0 0 133.11 131.35">
  <defs>
    <style>
      .cls-1 {
        fill: #fff;
      }
    </style>
  </defs>
  <g id="Camada_2-2" data-name="Camada 2">
    <g id="Layer_1" data-name="Layer 1">
      <g>
        <rect x="11.53" y="14.74" width="112.24" height="105.51"/>
        <path class="cls-1" d="M0,73.1C0,57.63,0,42.42,0,27.2.04,11.96,12.04,0,27.31,0h77.41c16.33,0,28.12,11.46,28.23,27.83.17,24.56.1,49.12.16,73.68.02,7.94-1.68,15.27-7.33,21.23-5.18,5.46-11.4,8.61-19.07,8.61-26.8,0-53.59,0-80.39,0C12.08,131.35.08,119.36.02,105.1-.02,94.51.02,83.93.02,73.09M18.33,47.85c-3.79,9.21-2.6,17.78,3.43,25.66.95,1.24.83,2.35.53,3.69-3.76,17.28,10.11,32.77,27.72,30.86,1.98-.21,3.19.29,4.59,1.54,13.17,11.77,33.87,7.19,40.78-9.04.67-1.57,1.7-2.22,3.21-2.7,17.33-5.61,23.56-25.02,12.7-39.64-.89-1.19-1.11-2.23-.69-3.64.98-3.31.98-6.76.38-10.08-2.48-13.86-15.21-22.67-28.34-20.95-1.56.2-2.8-.09-4.05-1.23-13.29-12.14-33.87-7.76-41.16,8.75-.59,1.33-1.34,2.09-2.77,2.5-7.49,2.19-12.86,6.9-16.35,14.29h.02Z"/>
        <path class="cls-1" d="M93.57,63.57c-7.51-4.31-14.86-8.53-22.88-13.13,3.35-1.86,6.04-3.39,8.77-4.84.73-.39,1.43.17,2.07.54,6.68,3.81,13.47,7.43,20.01,11.47,12.44,7.69,11.66,26.09-1.26,32.97-.71.38-1.41.89-2.33.69-.87-.78-.59-1.83-.59-2.78-.03-6.2-.17-12.41.05-18.61.11-3.08-.86-5.09-3.84-6.32h0ZM30.01,91.79c-1.85-3.88-2.78-7.7-1.89-11.76,1.16-.38,1.79.29,2.48.68,5.75,3.26,11.55,6.45,17.21,9.86,2.2,1.32,4,1.32,6.19.04,6.84-4.02,13.76-7.9,20.67-11.81.83-.47,1.58-1.25,3.02-.92,0,2.97.04,6-.02,9.02-.02.93-.89,1.32-1.61,1.73-6.31,3.61-12.58,7.3-18.94,10.83-9.88,5.49-20.92,2.38-27.1-7.67h0Z"/>
        <path class="cls-1" d="M30.3,73.27c-6.55-5.05-9.26-13.07-7.08-20.62,1.81-6.27,7.26-11.91,11.92-12.33.64.79.38,1.73.38,2.61.03,6.53.1,13.07-.02,19.6-.05,2.38.81,3.82,2.87,4.96,6.87,3.8,13.68,7.72,20.49,11.63.91.52,1.98.85,2.75,2.2-2.61,1.81-5.37,3.35-8.25,4.69-.65.3-1.29-.15-1.86-.48-7.07-4.07-14.13-8.16-21.19-12.26h-.01ZM66.43,48.07c-3.73,2.11-7.46,4.23-11.19,6.34,0-3.71-.04-6.79.03-9.87,0-.7.72-1.07,1.3-1.4,6.9-3.92,13.67-8.09,20.74-11.69,12.94-6.59,28.41,3.66,27.71,18.16-.03.65.01,1.32-.44,1.9-1.14.38-1.89-.46-2.7-.92-5.62-3.17-11.24-6.33-16.79-9.62-2.16-1.28-4.05-1.36-6.24-.03-4.02,2.45-8.17,4.69-12.42,7.11v.02ZM84.21,105.57c-8.12,5.92-19.82,5.8-24.41-.26,1.15-1.33,2.79-1.97,4.26-2.83,5.07-2.96,10.17-5.87,15.3-8.71,1.8-1,2.58-2.32,2.56-4.39-.06-8.1-.03-16.21,0-24.31,0-.87-.28-1.82.59-2.83,2.85,1.13,5.4,2.93,8.05,4.53.72.43.6,1.31.6,2.05,0,7.77.13,15.55-.07,23.32-.14,5.4-2.67,9.8-6.88,13.43h0Z"/>
        <path class="cls-1" d="M44.59,30.75c7.34-11.79,23.01-10.85,28.39-4.55-1.17,1.45-2.92,2.05-4.45,2.95-4.92,2.87-9.81,5.79-14.82,8.51-2.02,1.1-2.81,2.5-2.8,4.74.07,7.93.03,15.86,0,23.79,0,.97.24,1.98-.53,3.26-2.82-1.42-5.59-2.94-8.19-4.77-.68-.48-.5-1.36-.5-2.09,0-7.6-.03-15.2.03-22.79.03-3.21,1.17-6.13,2.85-9.05h.01Z"/>
        <path class="cls-1" d="M66.94,78.35c-4.23-1.21-7.58-3.79-11.2-5.87-.73-.42-.63-1.29-.63-2.04,0-3.05.05-6.11-.03-9.16-.03-1.43.53-2.29,1.76-2.95,2.68-1.46,5.34-2.97,7.96-4.54,1.12-.67,2.1-.69,3.23-.03,2.7,1.59,5.42,3.15,8.18,4.65,1.19.64,1.55,1.55,1.53,2.82-.05,3.05-.07,6.11.02,9.16.04,1.46-.6,2.26-1.8,2.92-2.97,1.62-5.9,3.31-9.01,5.04h0Z"/>
      </g>
    </g>
  </g>
</svg>