<?xml version="1.0" encoding="UTF-8"?>
<svg id="Camada_2" data-name="Camada 2" xmlns="http://www.w3.org/2000/svg" xmlns:xlink="http://www.w3.org/1999/xlink" viewBox="0 0 3097.99 866.82">
  <defs>
    <style>
      .cls-1 {
        fill: #feb0f2;
        stroke: #fff;
        stroke-miterlimit: 10;
      }

      .cls-2 {
        fill: #fff;
      }

      .cls-3 {
        fill: none;
      }

      .cls-4 {
        clip-path: url(#clippath);
      }
    </style>
    <clipPath id="clippath">
      <rect class="cls-3" width="866.82" height="866.82" rx="173.81" ry="173.81"/>
    </clipPath>
  </defs>
  <g id="Camada_2-2" data-name="Camada 2">
    <g class="cls-4">
      <g>
        <rect class="cls-1" x="-5.25" y="-2.05" width="872.95" height="880.57"/>
        <path class="cls-2" d="M531.27,168.81v111.37c0,2.69,5.16,18.95,6.52,22.45,69.33,111.29,145.42,218.61,216.48,328.97,19.79,54.42-14.52,112.35-72.58,117.58l-496.53-.17c-62.26-5.92-98.74-73.81-67.22-128.87l202.91-302.59c8.51-13.07,12.36-28.05,14.6-43.34l-.18-104.77-1.31-1.38c-14.86,2.88-34.33.02-40.29-15.96-6.04-16.19,2.44-34.79,20.22-37.27l240.79.1c24.05,6.33,27.61,39.96,5.1,50.93-.99.48-7.61,2.95-8.04,2.95h-20.48ZM477.31,168.81h-87.93l-.02,111.36c-3.29,22.5-10.07,44.65-21.55,64.36-34.38,58.98-81.98,114.95-115.74,173.97-9.06,15.84-11.03,30.95-1.61,47.39,27.43,47.89,90.13,20.32,126.26-.7,56.19-32.7,109.29-78.09,172.53-97.23,5.42-1.64,17.17-2.83,21.33-5.4,4.77-2.94.41-10.25-1.73-13.68-29.18-46.92-87.57-111.46-91.57-166.66l.04-113.41Z"/>
      </g>
    </g>
    <g>
      <path class="cls-2" d="M1399.69,452.25c14.93,15.49,28.47,38.81,34.34,59.68,71.8,255.21-362.52,299.91-426.01,85.98,1.34-4.53,71.5-54.69,76.16-55.51,8.46-1.48,5.57,2.21,7.65,5.71,14.52,24.49,21.19,44.49,44.94,64.29,66.15,55.15,214.92,42.82,189.19-71.12-11.35-50.28-164.49-77.01-210.39-100.11-135-67.95-113.83-238.52,26.48-282.43,62.79-19.65,160.16-15.51,215.99,22.46,16.58,11.28,72.08,61.52,63.02,81.33-1.95,4.26-69.87,57.25-74.55,56.88-31.97-60.35-67.24-90.84-139.43-82.52-46.07,5.31-92.63,43.65-61.48,91.16,34.52,52.64,191.31,59.05,254.08,124.19Z"/>
      <path class="cls-2" d="M2818.11,157.72v205.54c65.77-82.68,217-92.87,265.6,12.1,2.46,5.31,14.28,39.76,14.28,42.57v308.3h-98.39l-6.56-6.56v-271.13c0-2.43-21.04-38.14-25.17-41.64-35.39-30-97.98-17.36-125.38,17.91-3.35,4.31-19.99,34.07-19.99,36.86v258.01l-6.56,6.56h-91.84l-6.56-6.56V157.72h100.58Z"/>
      <path class="cls-2" d="M2458.74,298.84c74.17-3.3,157.19,31.37,188.88,101.79l-67.41,49.8c-78.54-120.59-263.84-38.17-224.51,101.92,25.73,91.63,148.15,118.87,210.69,46.79,5.86-6.75,6.6-21.9,17.72-21.85l63.08,46.86c5.89,19.59-45.74,63.42-61.21,73.3-179.42,114.58-392.87-64.32-318.97-262.12,28.07-75.14,112.07-132.93,191.73-136.48Z"/>
      <path class="cls-2" d="M2127.16,205.82v100.58h85.28l6.56,6.56v80.9h-91.84v229.59c0,16.93,31.5,24.65,45.68,24.16,15.21-.53,35.75-14.38,46.15-2.29v65.6c0,10.64-34.28,16.72-42.85,18.38-74.84,14.5-146.85-13-154.1-96.94-6.39-73.98,5.59-156.39-.46-231.32-4.51-13.78-47.78-4.62-60.64-7.15l1.93-83.39,59.31-4.1v-100.58h104.95Z"/>
      <path class="cls-2" d="M1637.37,205.82v100.58h91.84c8.61,28.47,4.05,58.6,0,87.46h-85.28l-6.56,6.56v209.91c0,45.17,63.21,39.89,91.84,28.43v76.53c-62.41,35.65-170.56,19.68-190.51-58.75-1.27-5-6.28-34.19-6.28-37.46v-225.22h-56.85v-80.9c13.9-13.13,38.72-4.04,56.85-6.56v-94.02l6.56-6.56h98.39Z"/>
      <polygon class="cls-2" points="1805.74 306.4 1897.57 306.4 1904.13 312.96 1904.13 719.66 1897.57 726.22 1805.74 726.22 1799.18 719.66 1799.18 312.96 1805.74 306.4"/>
      <path class="cls-2" d="M1850.62,132.65c95.48-3.7,81.18,143.7-12.33,123.68-68.48-14.66-63.55-120.74,12.33-123.68Z"/>
    </g>
  </g>
</svg>