<?xml version="1.0" encoding="UTF-8"?>
<svg id="Camada_2" data-name="Camada 2" xmlns="http://www.w3.org/2000/svg" viewBox="0 0 856.81 180.96">
  <defs>
    <style>
      .cls-1 {
        fill: #ff0a8d;
      }
    </style>
  </defs>
  <g id="Camada_2-2" data-name="Camada 2">
    <g>
      <path class="cls-1" d="M.17,99.38c.39-4.26-.53-9.31,0-13.45,2.94-23.06,27.01-22.9,43.1-29.87,11.93-5.16,12.24-23.52,17.69-34.66,12.48-25.5,46.79-22.98,57.39,3.82,4.58,11.57,3.99,25.96,16.69,31.18,20.9,8.58,44.23,8.27,41.97,39.65-1.85,25.71-25.94,25.29-43.71,32.63-10.04,4.15-11.16,19.92-14.75,29.37-6.73,17.69-18.11,24.74-37.51,21.69-22.52-3.54-22.24-27.41-29.35-43.21-4.4-9.78-18.62-10.49-27.96-13.96C11.5,118.02,3.75,112.66.17,99.38Z"/>
      <path class="cls-1" d="M632.48,114.28l-103.77,17.95c2.88,12.12,13.69,21.27,25.73,23.73,18.7,3.82,38.3-1.37,46.8-19.47l31.29-5.73c-6.41,25.7-23.97,43.04-50.17,48.22-36.11,7.14-74.9-7.72-84.9-45.4-14.33-54,26.62-99,81.89-88.39,33.15,6.37,53.98,36.06,53.15,69.09ZM526.13,108.35l74.9-13.07c-6.3-21.21-22.94-32.02-45.1-27.82-20.61,3.9-28.77,21.54-29.8,40.89Z"/>
      <path class="cls-1" d="M836.8,63.77c36.07,35.7,21.28,98.8-27.64,113.51-49.12,14.77-99.61-16.37-96.47-70.05,3.56-60.8,83.34-83.81,124.1-43.46ZM776.94,71.18c-42.53,5.37-44.3,78.45,2.82,82.74,60.75,5.53,61.24-90.83-2.82-82.74Z"/>
      <path class="cls-1" d="M487.92,44.09v28.77c-2.86,2.71-9.28.82-11.58,4.15l-41.05,98.41-27.64,5.03-54.59-128.12,31.09-4.53,35.95,91.94c10.1-22.74,17.33-46.7,26.8-69.67,1.63-3.96,2.82-7.61,5.2-11.25,8.43-12.93,22.24-11.79,35.82-14.71Z"/>
      <path class="cls-1" d="M260.9,0v148.32c0,.27-1.39.79.39,1.87l25.84-4.48v28.02c0,.71-1.91,1.56-2.68,1.81-4.92,1.65-24.55,4.87-30.02,5.2-12.98.76-25.41-9.2-27.16-22.03l.02-152.25c.42-1.23,2.35-1.53,3.47-1.77,9.6-2.12,20.42-2.69,30.15-4.68Z"/>
      <path class="cls-1" d="M681.22,0v149.07l1.69.98,23.42-4.36c.63-.08,1.86.77,1.86,1.14v26.9c-4.48,3.15-12.18,3.66-17.84,4.62-20.01,3.4-35.69,4.48-42.01-18.9V6.45s.65-.86.65-.86l32.23-5.59Z"/>
      <polygon class="cls-1" points="338.82 47.07 338.82 174.85 307.4 180.54 305.87 179.69 306.7 53.52 307.34 52.66 338.82 47.07"/>
      <path class="cls-1" d="M334.06,28.87c-14.76,14.63-38.51-7.39-23.74-23.3,14.75-15.9,39.89,7.3,23.74,23.3Z"/>
    </g>
  </g>
</svg>