<?xml version="1.0" encoding="UTF-8"?>
<svg id="Camada_2" data-name="Camada 2" xmlns="http://www.w3.org/2000/svg" xmlns:xlink="http://www.w3.org/1999/xlink" viewBox="0 0 1215.96 348.06">
  <defs>
    <style>
      .cls-1 {
        fill: url(#Gradiente_sem_nome_4-3);
      }

      .cls-2 {
        fill: url(#Gradiente_sem_nome_4);
      }

      .cls-3 {
        fill: url(#Gradiente_sem_nome_4-4);
      }

      .cls-4 {
        fill: url(#Gradiente_sem_nome_4-2);
      }

      .cls-5 {
        fill: #f5f4fa;
      }

      .cls-6 {
        fill: #323233;
      }
    </style>
    <linearGradient id="Gradiente_sem_nome_4" data-name="Gradiente sem nome 4" x1="203.11" y1="376.92" x2="201.99" y2="269.76" gradientTransform="translate(0 349.89) scale(1 -1)" gradientUnits="userSpaceOnUse">
      <stop offset="0" stop-color="#7117ea"/>
      <stop offset=".2" stop-color="#ab4fcf"/>
      <stop offset=".56" stop-color="#ce60b0"/>
      <stop offset=".92" stop-color="#f5738d"/>
      <stop offset="1" stop-color="#f5738d"/>
    </linearGradient>
    <linearGradient id="Gradiente_sem_nome_4-2" data-name="Gradiente sem nome 4" x1="-2.13" y1="274.62" x2="49.78" y2="207.47" xlink:href="#Gradiente_sem_nome_4"/>
    <linearGradient id="Gradiente_sem_nome_4-3" data-name="Gradiente sem nome 4" x1="401.75" y1="234.29" x2="355.9" y2="174.96" xlink:href="#Gradiente_sem_nome_4"/>
    <linearGradient id="Gradiente_sem_nome_4-4" data-name="Gradiente sem nome 4" x1="189.47" y1="-2.46" x2="189.47" y2="230.72" xlink:href="#Gradiente_sem_nome_4"/>
  </defs>
  <g id="Camada_1-2" data-name="Camada 1">
    <path class="cls-2" d="M202.41,0c-22.08,0-40,17.92-40,40s17.92,40,40,40,40-17.92,40-40S224.49,0,202.41,0ZM202.41,60.6c-11.4,0-20.61-9.21-20.61-20.6s9.21-20.6,20.61-20.6,20.6,9.21,20.6,20.6-9.21,20.6-20.6,20.6Z"/>
    <path class="cls-4" d="M31.53,87.26c-17.41,0-31.53,14.12-31.53,31.53s14.12,31.53,31.5,31.53,31.53-14.12,31.53-31.5-14.12-31.56-31.5-31.56ZM31.53,130.92c-6.69,0-12.13-5.41-12.13-12.13s5.41-12.14,12.13-12.14,12.1,5.41,12.13,12.1c-.03,6.72-5.45,12.13-12.13,12.17Z"/>
    <path class="cls-1" d="M372.14,126.05c-15.4,0-27.87,12.47-27.87,27.86s12.47,27.87,27.87,27.87,27.86-12.47,27.86-27.87-12.47-27.86-27.86-27.86ZM372.14,162.42c-4.67,0-8.5-3.8-8.5-8.47s3.8-8.5,8.47-8.5,8.5,3.8,8.5,8.47-3.8,8.5-8.47,8.5Z"/>
    <path class="cls-3" d="M307.59,209.27h-2.55c-10.49-53.88-52.47-94.08-102.69-94.08-39.6,0-74.08,25.07-92.03,62.15-6.96-1.85-14.12-2.79-21.31-2.79-47.13,0-85.28,39.76-85.28,88.77-.03,17.14,4.74,33.91,13.81,48.44,13.24,21.88,36.87,35.4,62.45,35.66l229.81.64c36.34-1.07,65.41-31.73,65.41-69.38.03-38.29-30.25-69.34-67.63-69.41ZM308.33,320.8l-227.12-.64c-15.36-.17-29.55-8.27-37.48-21.45l-.24-.37c-6.12-9.78-9.34-21.11-9.31-32.64,0-32.71,25.01-59.26,55.73-59.26,4.64,0,9.24.57,13.71,1.78,2.42.64,4.91.97,7.43.97,11.06,0,21.11-6.32,25.95-16.23,13.51-28.03,38.55-45.41,65.28-45.41,34.69,0,65.58,29.41,73.48,69.92,2.66,13.55,14.49,23.29,28.27,23.29h2.52c21.08.03,38.25,17.98,38.25,40.03s-15.97,39.16-36.47,40Z"/>
    <path class="cls-5" d="M657,113.06v31h-48.25v144h-32.75v-144h-47.75v-31h128.75ZM743.07,163.06h31v125h-31v-13c-9.33,11-21.42,16.5-36.25,16.5-12.5,0-23.5-2.83-33-8.5-9.5-5.67-16.83-13.5-22-23.5-5.17-10-7.75-21.25-7.75-33.75s2.58-23.75,7.75-33.75c5.17-10,12.5-17.83,22-23.5,9.5-5.83,20.5-8.75,33-8.75,14.5,0,26.58,5.5,36.25,16.5v-13.25ZM707.57,262.56c10.17,0,18.58-3.5,25.25-10.5,6.83-7,10.25-15.83,10.25-26.5s-3.33-19.42-10-26.25c-6.67-6.83-15.17-10.25-25.5-10.25-9.67,0-17.58,3.58-23.75,10.75-6.17,7.17-9.25,15.83-9.25,26s3.08,19.08,9.25,26.25c6.17,7,14.08,10.5,23.75,10.5ZM912.98,263.81c-6.17,8.5-13.92,15.25-23.25,20.25-9.33,5-19.42,7.5-30.25,7.5-12,0-23.08-2.92-33.25-8.75-10-6-18-14-24-24-5.83-10.17-8.75-21.17-8.75-33s2.92-22.75,8.75-32.75c6-10.17,14-18.17,24-24,10.17-6,21.25-9,33.25-9,10.67,0,20.67,2.5,30,7.5,9.33,4.83,17.08,11.42,23.25,19.75l-25.75,17.25c-7.67-9.17-16.83-13.75-27.5-13.75-6.33,0-12.17,1.58-17.5,4.75-5.33,3.17-9.58,7.42-12.75,12.75-3.17,5.33-4.75,11.17-4.75,17.5s1.58,12.17,4.75,17.5c3.17,5.33,7.42,9.58,12.75,12.75,5.33,3,11.17,4.5,17.5,4.5,5.5,0,10.58-1.17,15.25-3.5,4.67-2.5,8.75-5.92,12.25-10.25l26,17ZM977.28,245.31c0,5.67,1.33,9.58,4,11.75,2.67,2.17,6.92,3.25,12.75,3.25,3.5,0,7.33-.25,11.5-.75v28.5c-7.83.83-14.33,1.25-19.5,1.25-13.33,0-23.33-3-30-9-6.5-6.17-9.75-17.17-9.75-33v-56.5h-23.5v-27.75h23.5v-30.75l31-10.5v41.25h27.75v27.75h-27.75v54.5ZM1032.86,288.06v-125h30.75v125h-30.75ZM1048.36,134.06c-4.5,0-8.42-1.58-11.75-4.75-3.17-3.17-4.75-7.08-4.75-11.75s1.58-8.58,4.75-11.75c3.33-3.33,7.25-5,11.75-5s8.33,1.67,11.5,5c3.33,3.17,5,7.08,5,11.75s-1.67,8.58-5,11.75c-3.17,3.17-7,4.75-11.5,4.75ZM1185.21,163.06h30.75v167.75l-30.75,7.25v-63c-9.67,11-21.75,16.5-36.25,16.5-12.5,0-23.5-2.83-33-8.5-9.5-5.83-16.84-13.75-22-23.75-5.17-10-7.75-21.25-7.75-33.75s2.58-23.75,7.75-33.75c5.16-10,12.5-17.83,22-23.5,9.5-5.67,20.5-8.5,33-8.5,14.83,0,26.91,5.5,36.25,16.5v-13.25ZM1149.71,262.31c10.33,0,18.83-3.42,25.5-10.25,6.66-6.83,10-15.58,10-26.25s-3.42-19.5-10.25-26.5c-6.67-7.17-15.09-10.75-25.25-10.75s-17.59,3.58-23.75,10.75c-6.17,7.17-9.25,15.92-9.25,26.25s3.08,18.83,9.25,26c6.16,7.17,14.08,10.75,23.75,10.75Z"/>
  </g>
  <g id="Camada_2-2" data-name="Camada 2">
    <path class="cls-6" d="M657,113.06v31h-48.25v144h-32.75v-144h-47.75v-31h128.75ZM743.07,163.06h31v125h-31v-13c-9.33,11-21.42,16.5-36.25,16.5-12.5,0-23.5-2.83-33-8.5-9.5-5.67-16.83-13.5-22-23.5-5.17-10-7.75-21.25-7.75-33.75s2.58-23.75,7.75-33.75c5.17-10,12.5-17.83,22-23.5,9.5-5.83,20.5-8.75,33-8.75,14.5,0,26.58,5.5,36.25,16.5v-13.25ZM707.57,262.56c10.17,0,18.58-3.5,25.25-10.5,6.83-7,10.25-15.83,10.25-26.5s-3.33-19.42-10-26.25c-6.67-6.83-15.17-10.25-25.5-10.25-9.67,0-17.58,3.58-23.75,10.75-6.17,7.17-9.25,15.83-9.25,26s3.08,19.08,9.25,26.25c6.17,7,14.08,10.5,23.75,10.5ZM912.98,263.81c-6.17,8.5-13.92,15.25-23.25,20.25-9.33,5-19.42,7.5-30.25,7.5-12,0-23.08-2.92-33.25-8.75-10-6-18-14-24-24-5.83-10.17-8.75-21.17-8.75-33s2.92-22.75,8.75-32.75c6-10.17,14-18.17,24-24,10.17-6,21.25-9,33.25-9,10.67,0,20.67,2.5,30,7.5,9.33,4.83,17.08,11.42,23.25,19.75l-25.75,17.25c-7.67-9.17-16.83-13.75-27.5-13.75-6.33,0-12.17,1.58-17.5,4.75-5.33,3.17-9.58,7.42-12.75,12.75-3.17,5.33-4.75,11.17-4.75,17.5s1.58,12.17,4.75,17.5c3.17,5.33,7.42,9.58,12.75,12.75,5.33,3,11.17,4.5,17.5,4.5,5.5,0,10.58-1.17,15.25-3.5,4.67-2.5,8.75-5.92,12.25-10.25l26,17ZM977.28,245.31c0,5.67,1.33,9.58,4,11.75,2.67,2.17,6.92,3.25,12.75,3.25,3.5,0,7.33-.25,11.5-.75v28.5c-7.83.83-14.33,1.25-19.5,1.25-13.33,0-23.33-3-30-9-6.5-6.17-9.75-17.17-9.75-33v-56.5h-23.5v-27.75h23.5v-30.75l31-10.5v41.25h27.75v27.75h-27.75v54.5ZM1032.86,288.06v-125h30.75v125h-30.75ZM1048.36,134.06c-4.5,0-8.42-1.58-11.75-4.75-3.17-3.17-4.75-7.08-4.75-11.75s1.58-8.58,4.75-11.75c3.33-3.33,7.25-5,11.75-5s8.33,1.67,11.5,5c3.33,3.17,5,7.08,5,11.75s-1.67,8.58-5,11.75c-3.17,3.17-7,4.75-11.5,4.75ZM1185.21,163.06h30.75v167.75l-30.75,7.25v-63c-9.67,11-21.75,16.5-36.25,16.5-12.5,0-23.5-2.83-33-8.5-9.5-5.83-16.84-13.75-22-23.75-5.17-10-7.75-21.25-7.75-33.75s2.58-23.75,7.75-33.75c5.16-10,12.5-17.83,22-23.5,9.5-5.67,20.5-8.5,33-8.5,14.83,0,26.91,5.5,36.25,16.5v-13.25ZM1149.71,262.31c10.33,0,18.83-3.42,25.5-10.25,6.66-6.83,10-15.58,10-26.25s-3.42-19.5-10.25-26.5c-6.67-7.17-15.09-10.75-25.25-10.75s-17.59,3.58-23.75,10.75c-6.17,7.17-9.25,15.92-9.25,26.25s3.08,18.83,9.25,26c6.16,7.17,14.08,10.75,23.75,10.75Z"/>
  </g>
</svg>