<svg width="1233" height="349" viewBox="0 0 1233 349" fill="none" xmlns="http://www.w3.org/2000/svg">
<path d="M202.41 0C180.326 0 162.41 17.9158 162.41 39.9996C162.41 62.0834 180.326 79.9991 202.41 79.9991C224.494 79.9991 242.409 62.0834 242.409 39.9996C242.409 17.9158 224.494 0 202.41 0ZM202.41 60.6044C191.015 60.6044 181.805 51.3944 181.805 39.9996C181.805 28.6047 191.015 19.3947 202.41 19.3947C213.805 19.3947 223.015 28.6047 223.015 39.9996C223.015 51.3608 213.805 60.6044 202.41 60.6044Z" fill="url(#paint0_linear_2320_1680)"/>
<path d="M31.5291 87.2595C14.1175 87.2595 0 101.377 0 118.789C0 136.2 14.1175 150.318 31.4955 150.318C48.8734 150.318 63.0245 136.2 63.0245 118.822C63.0245 101.377 48.907 87.2595 31.5291 87.2595ZM31.5291 130.923C24.8401 130.923 19.3947 125.511 19.3947 118.789C19.3947 112.1 24.8065 106.654 31.5291 106.654C38.2181 106.654 43.6298 112.066 43.6634 118.755C43.6298 125.478 38.2181 130.889 31.5291 130.923Z" fill="url(#paint1_linear_2320_1680)"/>
<path d="M372.135 126.049C356.74 126.049 344.27 138.52 344.27 153.914C344.27 169.309 356.74 181.78 372.135 181.78C387.53 181.78 400 169.309 400 153.914C400 138.553 387.53 126.049 372.135 126.049ZM372.135 162.418C367.463 162.418 363.631 158.62 363.631 153.948C363.631 149.276 367.429 145.444 372.101 145.444C376.773 145.444 380.605 149.242 380.605 153.914C380.605 158.62 376.807 162.418 372.135 162.418Z" fill="url(#paint2_linear_2320_1680)"/>
<path d="M307.589 209.275H305.034C294.547 155.393 252.564 115.192 202.346 115.192C162.75 115.192 128.263 140.267 110.314 177.343C103.356 175.494 96.1963 174.553 89.0031 174.553C41.8776 174.553 3.72674 214.317 3.72674 263.325C3.69313 280.468 8.46618 297.24 17.5417 311.761C30.7853 333.643 54.4153 347.156 79.9948 347.425L309.807 348.063C346.143 346.988 375.219 316.333 375.219 278.686C375.252 240.401 344.967 209.342 307.589 209.275ZM308.328 320.803L81.2049 320.165C65.8437 319.997 51.659 311.896 43.7263 298.719L43.491 298.35C37.3734 288.568 34.1466 277.241 34.1802 265.711C34.1802 233.006 59.1883 206.452 89.9107 206.452C94.5493 206.452 99.1543 207.023 103.625 208.233C106.045 208.872 108.532 209.208 111.053 209.208C122.112 209.208 132.162 202.889 137.003 192.973C150.515 164.939 175.557 147.561 202.279 147.561C236.968 147.561 267.858 176.973 275.757 217.477C278.413 231.023 290.245 240.77 304.026 240.77H306.547C327.622 240.804 344.799 258.753 344.799 280.804C344.799 302.518 328.832 319.963 308.328 320.803Z" fill="url(#paint3_linear_2320_1680)"/>
<path d="M657 113.063V144.063H608.75V288.063H576V144.063H528.25V113.063H657ZM743.066 163.063H774.066V288.063H743.066V275.063C733.733 286.063 721.65 291.563 706.816 291.563C694.316 291.563 683.316 288.73 673.816 283.063C664.316 277.397 656.983 269.563 651.816 259.563C646.65 249.563 644.066 238.313 644.066 225.813C644.066 213.313 646.65 202.063 651.816 192.063C656.983 182.063 664.316 174.23 673.816 168.563C683.316 162.73 694.316 159.813 706.816 159.813C721.316 159.813 733.4 165.313 743.066 176.313V163.063ZM707.566 262.563C717.733 262.563 726.15 259.063 732.816 252.063C739.65 245.063 743.066 236.23 743.066 225.563C743.066 214.897 739.733 206.147 733.066 199.313C726.4 192.48 717.9 189.063 707.566 189.063C697.9 189.063 689.983 192.647 683.816 199.813C677.65 206.98 674.566 215.647 674.566 225.813C674.566 236.147 677.65 244.897 683.816 252.063C689.983 259.063 697.9 262.563 707.566 262.563ZM912.98 263.813C906.814 272.313 899.064 279.063 889.73 284.063C880.397 289.063 870.314 291.563 859.48 291.563C847.48 291.563 836.397 288.647 826.23 282.813C816.23 276.813 808.23 268.813 802.23 258.813C796.397 248.647 793.48 237.647 793.48 225.813C793.48 213.98 796.397 203.063 802.23 193.063C808.23 182.897 816.23 174.897 826.23 169.063C836.397 163.063 847.48 160.063 859.48 160.063C870.147 160.063 880.147 162.563 889.48 167.563C898.814 172.397 906.564 178.98 912.73 187.313L886.98 204.563C879.314 195.397 870.147 190.813 859.48 190.813C853.147 190.813 847.314 192.397 841.98 195.563C836.647 198.73 832.397 202.98 829.23 208.313C826.064 213.647 824.48 219.48 824.48 225.813C824.48 232.147 826.064 237.98 829.23 243.313C832.397 248.647 836.647 252.897 841.98 256.063C847.314 259.063 853.147 260.563 859.48 260.563C864.98 260.563 870.064 259.397 874.73 257.063C879.397 254.563 883.48 251.147 886.98 246.813L912.98 263.813ZM977.281 245.313C977.281 250.98 978.615 254.897 981.281 257.063C983.948 259.23 988.198 260.313 994.031 260.313C997.531 260.313 1001.36 260.063 1005.53 259.563V288.063C997.698 288.897 991.198 289.313 986.031 289.313C972.698 289.313 962.698 286.313 956.031 280.313C949.531 274.147 946.281 263.147 946.281 247.313V190.813H922.781V163.063H946.281V132.313L977.281 121.813V163.063H1005.03V190.813H977.281V245.313ZM1032.86 288.063V163.063H1063.61V288.063H1032.86ZM1048.36 134.063C1043.86 134.063 1039.94 132.48 1036.61 129.313C1033.44 126.147 1031.86 122.23 1031.86 117.563C1031.86 112.897 1033.44 108.98 1036.61 105.813C1039.94 102.48 1043.86 100.813 1048.36 100.813C1052.86 100.813 1056.69 102.48 1059.86 105.813C1063.19 108.98 1064.86 112.897 1064.86 117.563C1064.86 122.23 1063.19 126.147 1059.86 129.313C1056.69 132.48 1052.86 134.063 1048.36 134.063ZM1185.21 163.063H1215.96V330.813L1185.21 338.063V275.063C1175.54 286.063 1163.46 291.563 1148.96 291.563C1136.46 291.563 1125.46 288.73 1115.96 283.063C1106.46 277.23 1099.12 269.313 1093.96 259.313C1088.79 249.313 1086.21 238.063 1086.21 225.563C1086.21 213.063 1088.79 201.813 1093.96 191.813C1099.12 181.813 1106.46 173.98 1115.96 168.313C1125.46 162.647 1136.46 159.813 1148.96 159.813C1163.79 159.813 1175.87 165.313 1185.21 176.313V163.063ZM1149.71 262.313C1160.04 262.313 1168.54 258.897 1175.21 252.063C1181.87 245.23 1185.21 236.48 1185.21 225.813C1185.21 215.147 1181.79 206.313 1174.96 199.313C1168.29 192.147 1159.87 188.563 1149.71 188.563C1140.04 188.563 1132.12 192.147 1125.96 199.313C1119.79 206.48 1116.71 215.23 1116.71 225.563C1116.71 235.73 1119.79 244.397 1125.96 251.563C1132.12 258.73 1140.04 262.313 1149.71 262.313Z" fill="#F5F4FA"/>
<defs>
<linearGradient id="paint0_linear_2320_1680" x1="203.111" y1="-27.0345" x2="201.996" y2="80.1328" gradientUnits="userSpaceOnUse">
<stop stop-color="#7117EA"/>
<stop offset="0.2" stop-color="#AB4FCF"/>
<stop offset="0.56" stop-color="#CE60B0"/>
<stop offset="0.92" stop-color="#F5738D"/>
<stop offset="1" stop-color="#F5738D"/>
</linearGradient>
<linearGradient id="paint1_linear_2320_1680" x1="-2.13357" y1="75.2665" x2="49.7771" y2="142.418" gradientUnits="userSpaceOnUse">
<stop stop-color="#7117EA"/>
<stop offset="0.2" stop-color="#AB4FCF"/>
<stop offset="0.56" stop-color="#CE60B0"/>
<stop offset="0.92" stop-color="#F5738D"/>
<stop offset="1" stop-color="#F5738D"/>
</linearGradient>
<linearGradient id="paint2_linear_2320_1680" x1="401.751" y1="115.602" x2="355.899" y2="174.929" gradientUnits="userSpaceOnUse">
<stop stop-color="#7117EA"/>
<stop offset="0.2" stop-color="#AB4FCF"/>
<stop offset="0.56" stop-color="#CE60B0"/>
<stop offset="0.92" stop-color="#F5738D"/>
<stop offset="1" stop-color="#F5738D"/>
</linearGradient>
<linearGradient id="paint3_linear_2320_1680" x1="189.497" y1="352.346" x2="189.497" y2="119.169" gradientUnits="userSpaceOnUse">
<stop stop-color="#7117EA"/>
<stop offset="0.2" stop-color="#AB4FCF"/>
<stop offset="0.56" stop-color="#CE60B0"/>
<stop offset="0.92" stop-color="#F5738D"/>
<stop offset="1" stop-color="#F5738D"/>
</linearGradient>
</defs>
</svg>
